<?xml version="1.0" encoding="UTF-8" standalone="no"?>
<!DOCTYPE svg PUBLIC "-//W3C//DTD SVG 1.1//EN" "http://www.w3.org/Graphics/SVG/1.1/DTD/svg11.dtd">
<svg width="100%" height="100%" viewBox="0 0 965 973" version="1.1" xmlns="http://www.w3.org/2000/svg" xmlns:xlink="http://www.w3.org/1999/xlink" xml:space="preserve" xmlns:serif="http://www.serif.com/" style="fill-rule:evenodd;clip-rule:evenodd;stroke-linejoin:round;stroke-miterlimit:2;">
    <g transform="matrix(1,0,0,1,-690.752336,-1194.813435)">
        <g transform="matrix(1,0,0,1,688,1193)">
            <path d="M966.146,2.933C966.814,4.526 966.816,4.475 966.805,968.5C966.805,972.191 967.338,973.502 963.5,973.53C688.375,975.545 83.06,973.756 6.5,973.53C3.524,973.521 2.829,973.576 2.805,970.498C2.805,970.48 2.805,970.481 2.805,8.5C2.805,4.159 2.023,2.538 6.5,2.53C83.272,2.386 951.94,0.766 966.146,2.933Z"/>
        </g>
        <g transform="matrix(1,0,0,1,688,1193)">
            <path d="M553.894,553.485C552.187,608.377 511.929,608.042 512.895,615.463C515.512,635.559 539.144,709.64 496.507,720.541C496.067,720.653 491.03,718.832 498.324,715.153C519.211,704.619 523.173,685.143 509.164,616.609C507.422,608.086 462.587,639.054 419.77,587.295C414.937,581.453 383.974,535.563 412.961,482.739C430.542,450.701 470.325,417.858 469.528,413.501C468.094,405.66 447.498,326.976 481.648,286.625C514.194,248.169 538.997,357.572 502.645,418.584C492.894,434.948 478.059,447.281 478.903,450.483C486.14,477.916 487.019,497.625 490.487,497.312C507.53,495.777 508.101,492.843 523.578,500.339C550.909,513.575 553.529,548.604 553.894,553.485Z" style="fill:rgb(232,218,133);"/>
        </g>
        <g transform="matrix(1,0,0,1,688,1193)">
            <path d="M470.516,583.255C470.984,583.824 471.921,586.359 472.21,584.258C472.478,582.301 472.36,582.339 471.059,580.77C443.284,547.269 480.802,518.47 489.458,520.621C490.217,520.81 509.808,609.871 506.242,611.047C447.425,630.44 390.429,572.127 422.796,506.651C432.702,486.612 473.758,453.328 474.439,453.138C477.736,452.218 477.375,454.591 485.015,494.598C486.135,500.461 482.779,499.82 480.632,500.813C449.76,515.107 432.54,557.075 470.516,583.255Z" style="fill:rgb(5,4,3);"/>
        </g>
        <g transform="matrix(1,0,0,1,688,1193)">
            <path d="M478.535,330.517C480.655,326.972 480.445,326.989 482.664,323.612C505.178,289.365 533.699,331.935 499.409,380.438C476.617,412.677 472.175,412.602 471.698,409.429C464.716,362.939 467.124,359.805 478.535,330.517Z" style="fill:rgb(4,3,3);"/>
        </g>
        <g transform="matrix(1,0,0,1,688,1193)">
            <path d="M590.918,482.866C584.39,489.79 576.497,499.638 557.813,513.869C556.204,515.214 554.745,516.732 553.136,518.077C547.173,523.063 543.381,515.016 547.529,511.531C617.147,453.05 633.489,411.742 603.854,292.419C589.08,232.934 571.437,190.625 571.34,189.496C570.323,177.729 579.915,202.293 580.402,203.538C656.777,399.127 622.529,443.566 590.918,482.866Z" style="fill:rgb(161,153,103);"/>
        </g>
        <g transform="matrix(1,0,0,1,688,1193)">
            <path d="M496.831,745.383C496.431,743.762 492.247,726.809 495.541,724.557C499.645,721.752 499.057,733.778 499.241,735.535C503.179,773.237 576.837,762.131 585.322,776.601C595.055,793.201 560.51,790.196 524.499,790.23C388.709,790.359 387.401,790.985 383.661,786.367C371.321,771.134 409.211,768.09 432.421,763.161C482.978,752.425 463.801,731.545 469.909,725.861C475.513,720.645 473.266,736.5 473.131,737.453C467.856,774.669 405.877,769.206 389.39,778.326C377.667,784.811 409.064,783.817 431.502,783.621C533.147,782.733 576.876,785.142 579.461,782.465C590.924,770.588 510.272,777.302 496.831,745.383Z" style="fill:rgb(154,146,100);"/>
        </g>
        <g transform="matrix(1,0,0,1,688,1193)">
            <path d="M538.75,566.499C538.294,570.375 534.967,598.622 513.399,608.17C510.56,609.427 508.631,594.504 496.407,534.522C495.444,529.797 487.472,515.057 508.395,520.876C534.998,528.274 538.322,562.137 538.75,566.499Z" style="fill:rgb(7,5,4);"/>
        </g>
        <g transform="matrix(1,0,0,1,688,1193)">
            <path d="M344.155,354.43C348.13,331.248 347.95,331.344 353.434,308.483C366.998,251.944 392.683,189.211 394.651,187.77C408.563,177.579 314.77,363.557 365.414,450.548C387.93,489.222 405.104,490.012 401.086,502.333C400.887,502.943 399.84,505.275 393.644,499.351C333.923,442.244 339.472,399.581 344.155,354.43Z" style="fill:rgb(160,152,102);"/>
        </g>
        <g transform="matrix(1,0,0,1,688,1193)">
            <path d="M435.763,681.547C445.77,647.018 473.594,664.503 476.677,675.448C482.881,697.474 456.659,701.441 456.665,703.507C456.697,714.39 473.491,719.396 473.537,719.482C476.629,725.302 460.342,718.435 459.285,717.99C429.118,705.273 435.575,684.22 435.763,681.547Z" style="fill:rgb(237,222,133);"/>
        </g>
        <g transform="matrix(1,0,0,1,688,1193)">
            <path d="M498.599,707.502C497.548,715.627 494.244,710.967 494.24,710.541C494.174,703.414 493.438,623.918 494.359,621.449C499.12,608.687 498.445,634.021 498.599,707.502Z" style="fill:rgb(150,143,104);"/>
        </g>
        <g transform="matrix(1,0,0,1,688,1193)">
            <path d="M505.732,565.307C505.656,564.873 500.011,556.725 516.535,538.531C525.94,528.175 526.202,537.656 526.088,538.412C525.677,541.132 520.967,538.301 507.155,567.121C506.387,568.723 506.473,566.999 505.732,565.307Z" style="fill:rgb(157,150,102);"/>
        </g>
        <g transform="matrix(1,0,0,1,688,1193)">
            <path d="M435.612,524.357C440.146,528.246 447.885,531.593 446.068,539.314C445.548,541.523 443.929,540.452 422.533,523.46C421.523,522.658 420.332,521.579 421.883,517.658C423.953,512.422 433.226,522.456 435.612,524.357Z" style="fill:rgb(160,152,102);"/>
        </g>
        <g transform="matrix(1,0,0,1,688,1193)">
            <path d="M473.923,628.5C473.868,642.665 475.078,670.939 470.266,661.634C468.975,659.136 470.075,640.556 469.512,622.5C469.512,622.499 469.23,620.417 471.501,620.599C473.655,620.772 473.9,627.839 473.923,628.5Z" style="fill:rgb(150,144,105);"/>
        </g>
        <g transform="matrix(1,0,0,1,688,1193)">
            <path d="M497.216,578.207L498.443,578.688C500.92,590.73 500.218,590.714 499.237,606.483C498.948,611.132 495.246,610.142 494.665,609.418C493.576,608.061 496.908,579.066 497.216,578.207Z" style="fill:rgb(145,142,102);"/>
        </g>
        <g transform="matrix(1,0,0,1,688,1193)">
            <path d="M466.694,585.604C474.179,586.682 473.059,598.349 473.623,607.501C473.874,611.556 469.384,610.221 469.146,607.568C467.327,587.286 466.648,587.371 466.694,585.604Z" style="fill:rgb(145,142,103);"/>
        </g>
        <g transform="matrix(1,0,0,1,688,1193)">
            <path d="M473.747,703.497C473.716,704.352 473.047,722.722 469.744,713.416C467.702,707.665 472.587,690.297 473.747,703.497Z" style="fill:rgb(147,145,108);"/>
        </g>
        <g transform="matrix(1,0,0,1,688,1193)">
            <path d="M466.523,568.476C463.999,563.547 464.42,556.5 466.225,559.701C466.742,560.618 473.613,572.807 468.5,572.658C468.13,572.648 467.245,572.622 466.523,568.476Z" style="fill:rgb(38,40,38);"/>
        </g>
        <g transform="matrix(1,0,0,1,688,1193)">
            <path d="M622.376,391.609C622.179,391.351 610.438,374.644 622.436,387.549C625.433,390.773 622.741,390.944 622.376,391.609Z" style="fill:rgb(165,155,97);"/>
        </g>
        <g transform="matrix(1,0,0,1,688,1193)">
            <path d="M345.55,390.744C344.402,386.174 346.21,386.867 346.5,386.979C348.232,387.643 347.074,388.043 345.55,390.744Z" style="fill:rgb(166,156,94);"/>
        </g>
        <g transform="matrix(1,0,0,1,688,1193)">
            <path d="M589.856,478.459C585.905,475.478 589.447,475.284 589.652,475.416C591.331,476.498 591.263,476.872 589.856,478.459Z" style="fill:rgb(163,156,99);"/>
        </g>
        <g transform="matrix(1,0,0,1,688,1193)">
            <path d="M345.5,355.169C348.22,354.82 350.154,353.954 348.873,356.355C347.647,358.652 346.992,357.274 345.5,355.169Z" style="fill:rgb(165,152,98);"/>
        </g>
        <g transform="matrix(1,0,0,1,688,1193)">
            <path d="M497.216,578.207C497.969,576.687 496.852,575.379 498.279,576.063C498.468,576.154 498.279,576.063 498.443,578.688L497.216,578.207Z" style="fill:rgb(44,41,41);"/>
        </g>
        <g transform="matrix(1,0,0,1,688,1193)">
            <path d="M614.187,434.594C616.566,436.085 614.906,436.462 614.777,436.384C614.777,436.384 614.234,434.737 614.187,434.594Z" style="fill:rgb(169,160,100);"/>
        </g>
        <g transform="matrix(1,0,0,1,688,1193)">
            <path d="M347.86,420.5C348.45,418.797 348.306,418.797 348.45,418.797C349.804,418.797 348.297,419.241 347.86,420.5Z" style="fill:rgb(174,162,105);"/>
        </g>
    </g>
</svg>
